<?xml version="1.0" encoding="UTF-8"?>
<svg id="Calque_2" data-name="Calque 2" xmlns="http://www.w3.org/2000/svg" viewBox="0 0 175.98 272.62">
  <defs>
    <style>
      .cls-1 {
        fill: #050303;
      }

      .cls-2 {
        fill: #1d1d1b;
      }

      .cls-3 {
        fill: #fff;
      }
    </style>
  </defs>
  <g id="Calque_2-2" data-name="Calque 2">
    <g>
      <g>
        <path class="cls-1" d="M109.72,181.25c0,1.97,1.6,3.57,3.57,3.57h62.69v37.79h-62.69c-1.97,0-3.57,1.6-3.57,3.57s1.6,3.57,3.57,3.57h62.69v24.36c0,10.21-8.31,18.51-18.51,18.51H45.69c2.65,0,5.21-.55,7.58-1.63,6.64-2.97,10.93-9.6,10.93-16.88v-100.79c0-8.55,6.95-15.51,15.5-15.51h77.77c2.55,0,5-.5,7.28-1.5.11-.04.21-.08.31-.13,2.02-.91,3.85-2.16,5.44-3.73.05-.05.1-.1.15-.16,2.03-2.05,3.56-4.57,4.44-7.31l.03-.1c.5-1.58.79-3.24.84-4.92,0-.03,0-.06,0-.09v-.06c.01-.17.01-.34.01-.51v58.38h-62.69c-1.97,0-3.57,1.6-3.57,3.57Z"/>
        <path class="cls-1" d="M175.96,119.96c-.05,1.68-.34,3.34-.84,4.92l.02-.09c.46-1.8.75-3.51.82-4.83Z"/>
      </g>
      <path class="cls-3" d="M175.98,177.68v7.14h-62.69c-1.97,0-3.57-1.6-3.57-3.57s1.6-3.57,3.57-3.57h62.69Z"/>
      <path class="cls-3" d="M175.98,222.61v7.14h-62.69c-1.97,0-3.57-1.6-3.57-3.57s1.6-3.57,3.57-3.57h62.69Z"/>
      <g>
        <path class="cls-2" d="M87.99,28.61c-22.22,0-40.29,18.08-40.29,40.3s18.07,40.29,40.29,40.29,40.29-18.07,40.29-40.29-18.07-40.3-40.29-40.3ZM87.99,107.2c-21.11,0-38.29-17.18-38.29-38.29s17.18-38.3,38.29-38.3,38.29,17.18,38.29,38.3-17.18,38.29-38.29,38.29ZM87.99,28.61c-22.22,0-40.29,18.08-40.29,40.3s18.07,40.29,40.29,40.29,40.29-18.07,40.29-40.29-18.07-40.3-40.29-40.3ZM87.99,107.2c-21.11,0-38.29-17.18-38.29-38.29s17.18-38.3,38.29-38.3,38.29,17.18,38.29,38.3-17.18,38.29-38.29,38.29ZM87.99,28.61c-22.22,0-40.29,18.08-40.29,40.3s18.07,40.29,40.29,40.29,40.29-18.07,40.29-40.29-18.07-40.3-40.29-40.3ZM87.99,107.2c-21.11,0-38.29-17.18-38.29-38.29s17.18-38.3,38.29-38.3,38.29,17.18,38.29,38.3-17.18,38.29-38.29,38.29ZM87.99,28.61c-22.22,0-40.29,18.08-40.29,40.3s18.07,40.29,40.29,40.29,40.29-18.07,40.29-40.29-18.07-40.3-40.29-40.3ZM87.99,107.2c-21.11,0-38.29-17.18-38.29-38.29s17.18-38.3,38.29-38.3,38.29,17.18,38.29,38.3-17.18,38.29-38.29,38.29ZM87.99,28.61c-22.22,0-40.29,18.08-40.29,40.3s18.07,40.29,40.29,40.29,40.29-18.07,40.29-40.29-18.07-40.3-40.29-40.3ZM87.99,107.2c-21.11,0-38.29-17.18-38.29-38.29s17.18-38.3,38.29-38.3,38.29,17.18,38.29,38.3-17.18,38.29-38.29,38.29ZM87.99,28.61c-22.22,0-40.29,18.08-40.29,40.3s18.07,40.29,40.29,40.29,40.29-18.07,40.29-40.29-18.07-40.3-40.29-40.3ZM87.99,107.2c-21.11,0-38.29-17.18-38.29-38.29s17.18-38.3,38.29-38.3,38.29,17.18,38.29,38.3-17.18,38.29-38.29,38.29ZM87.99,28.61c-22.22,0-40.29,18.08-40.29,40.3s18.07,40.29,40.29,40.29,40.29-18.07,40.29-40.29-18.07-40.3-40.29-40.3ZM87.99,107.2c-21.11,0-38.29-17.18-38.29-38.29s17.18-38.3,38.29-38.3,38.29,17.18,38.29,38.3-17.18,38.29-38.29,38.29ZM87.99,28.61c-22.22,0-40.29,18.08-40.29,40.3s18.07,40.29,40.29,40.29,40.29-18.07,40.29-40.29-18.07-40.3-40.29-40.3ZM87.99,107.2c-21.11,0-38.29-17.18-38.29-38.29s17.18-38.3,38.29-38.3,38.29,17.18,38.29,38.3-17.18,38.29-38.29,38.29ZM87.99,28.61c-22.22,0-40.29,18.08-40.29,40.3s18.07,40.29,40.29,40.29,40.29-18.07,40.29-40.29-18.07-40.3-40.29-40.3ZM87.99,107.2c-21.11,0-38.29-17.18-38.29-38.29s17.18-38.3,38.29-38.3,38.29,17.18,38.29,38.3-17.18,38.29-38.29,38.29Z"/>
        <g>
          <path class="cls-1" d="M157.47,0H18.5C8.3,0,0,8.3,0,18.51v235.6c0,10.21,8.3,18.51,18.5,18.51h27.19c2.65,0,5.21-.55,7.58-1.63,6.64-2.97,10.93-9.6,10.93-16.88v-100.79c0-8.55,6.95-15.51,15.5-15.51h77.77c2.55,0,5-.5,7.28-1.5.11-.04.21-.08.31-.13,2.02-.91,3.85-2.16,5.44-3.73.05-.05.1-.1.15-.16,2.03-2.05,3.56-4.57,4.44-7.31l.03-.1.02-.09c.46-1.8.75-3.51.82-4.83,0-.03,0-.06,0-.09v-.06c.01-.17.01-.34.01-.51V18.51c0-10.21-8.3-18.51-18.51-18.51ZM157.47,130.81h-77.77c-12.41,0-22.5,10.1-22.5,22.51v100.79c0,4.53-2.67,8.64-6.82,10.5-1.47.67-3.04,1.01-4.69,1.01h-27.19c-6.34,0-11.5-5.16-11.5-11.51V18.51c0-6.35,5.16-11.51,11.5-11.51h138.97c6.35,0,11.51,5.16,11.51,11.51v101.02c-.04.81-.25,2.04-.58,3.37-.56,1.72-1.53,3.3-2.81,4.56-1,.98-2.14,1.77-3.42,2.34-1.47.67-3.05,1.01-4.7,1.01Z"/>
          <path class="cls-3" d="M157.47,7H18.5c-6.34,0-11.5,5.16-11.5,11.51v235.6c0,6.35,5.16,11.51,11.5,11.51h27.19c1.65,0,3.22-.34,4.69-1.01,4.15-1.86,6.82-5.97,6.82-10.5v-100.79c0-12.41,10.09-22.51,22.5-22.51h77.77c1.65,0,3.23-.34,4.7-1.01,1.28-.57,2.42-1.36,3.42-2.34,1.28-1.26,2.25-2.84,2.81-4.56.33-1.33.54-2.56.57-3.37v-.04s.01-100.98.01-100.98c0-6.35-5.16-11.51-11.51-11.51ZM87.99,109.2c-22.22,0-40.29-18.07-40.29-40.29s18.07-40.3,40.29-40.3,40.29,18.08,40.29,40.3-18.07,40.29-40.29,40.29Z"/>
        </g>
      </g>
      <path class="cls-1" d="M87.99,30.61c-21.11,0-38.29,17.18-38.29,38.3s17.18,38.29,38.29,38.29,38.29-17.18,38.29-38.29-17.18-38.3-38.29-38.3ZM107.5,68.95c-9.02,3.34-16.13,10.45-19.47,19.47l-.04.11-.05-.11c-3.33-9.02-10.44-16.13-19.46-19.47l-.11-.04.11-.05c9.02-3.33,16.13-10.44,19.46-19.46l.05-.11.04.11c3.34,9.02,10.45,16.13,19.47,19.46l.11.05-.11.04Z"/>
      <path class="cls-3" d="M107.61,68.91l-.11.04c-9.02,3.34-16.13,10.45-19.47,19.47l-.04.11-.05-.11c-3.33-9.02-10.44-16.13-19.46-19.47l-.11-.04.11-.05c9.02-3.33,16.13-10.44,19.46-19.46l.05-.11.04.11c3.34,9.02,10.45,16.13,19.47,19.46l.11.05Z"/>
    </g>
  </g>
</svg>